<svg width="45" height="45" viewBox="0 0 45 45" fill="none" xmlns="http://www.w3.org/2000/svg">
<path d="M39.375 30H13.125C12.6277 30 12.1508 29.8025 11.7992 29.4508C11.4475 29.0992 11.25 28.6223 11.25 28.125C11.25 27.6277 11.4475 27.1508 11.7992 26.7992C12.1508 26.4475 12.6277 26.25 13.125 26.25H32.7C33.9537 26.2501 35.1715 25.8313 36.1601 25.0602C37.1486 24.2891 37.8512 23.2098 38.1562 21.9937L41.25 9.825C41.3202 9.54826 41.3263 9.25915 41.2678 8.9797C41.2093 8.70025 41.0878 8.43784 40.9125 8.2125C40.7302 7.98137 40.4959 7.79643 40.2288 7.67265C39.9617 7.54887 39.6692 7.48972 39.375 7.5H12.675C12.2882 6.40584 11.5724 5.45812 10.6257 4.78676C9.67913 4.1154 8.54802 3.75326 7.3875 3.75H5.625C5.12772 3.75 4.65081 3.94754 4.29917 4.29917C3.94754 4.65081 3.75 5.12772 3.75 5.625C3.75 6.12228 3.94754 6.59919 4.29917 6.95083C4.65081 7.30246 5.12772 7.5 5.625 7.5H7.3875C7.81581 7.48752 8.23548 7.62212 8.57664 7.8814C8.91779 8.14068 9.15984 8.50898 9.2625 8.925L9.375 9.825L12.6187 22.5C11.1269 22.5671 9.72283 23.2241 8.71541 24.3265C7.70799 25.4289 7.17974 26.8863 7.24688 28.3781C7.31401 29.87 7.97102 31.274 9.07339 32.2815C10.1757 33.2889 11.6332 33.8171 13.125 33.75H13.4625C13.1541 34.5996 13.055 35.511 13.1736 36.4071C13.2922 37.3031 13.625 38.1574 14.1437 38.8975C14.6625 39.6377 15.352 40.242 16.1538 40.6591C16.9556 41.0763 17.8461 41.2941 18.75 41.2941C19.6539 41.2941 20.5444 41.0763 21.3462 40.6591C22.148 40.242 22.8375 39.6377 23.3563 38.8975C23.875 38.1574 24.2078 37.3031 24.3264 36.4071C24.445 35.511 24.3459 34.5996 24.0375 33.75H28.4625C28.1541 34.5996 28.055 35.511 28.1736 36.4071C28.2922 37.3031 28.625 38.1574 29.1437 38.8975C29.6625 39.6377 30.352 40.242 31.1538 40.6591C31.9556 41.0763 32.8461 41.2941 33.75 41.2941C34.6539 41.2941 35.5444 41.0763 36.3462 40.6591C37.148 40.242 37.8375 39.6377 38.3563 38.8975C38.875 38.1574 39.2078 37.3031 39.3264 36.4071C39.445 35.511 39.3459 34.5996 39.0375 33.75H39.375C39.8723 33.75 40.3492 33.5525 40.7008 33.2008C41.0525 32.8492 41.25 32.3723 41.25 31.875C41.25 31.3777 41.0525 30.9008 40.7008 30.5492C40.3492 30.1975 39.8723 30 39.375 30ZM36.975 11.25L34.5187 21.075C34.4161 21.491 34.174 21.8593 33.8329 22.1186C33.4917 22.3779 33.0721 22.5125 32.6437 22.5H16.4625L13.65 11.25H36.975ZM18.75 37.5C18.3792 37.5 18.0166 37.39 17.7083 37.184C17.4 36.978 17.1596 36.6851 17.0177 36.3425C16.8758 35.9999 16.8387 35.6229 16.911 35.2592C16.9834 34.8955 17.162 34.5614 17.4242 34.2992C17.6864 34.0369 18.0205 33.8584 18.3842 33.786C18.7479 33.7137 19.1249 33.7508 19.4675 33.8927C19.8101 34.0346 20.103 34.275 20.309 34.5833C20.515 34.8916 20.625 35.2542 20.625 35.625C20.625 36.1223 20.4275 36.5992 20.0758 36.9508C19.7242 37.3025 19.2473 37.5 18.75 37.5ZM33.75 37.5C33.3792 37.5 33.0166 37.39 32.7083 37.184C32.4 36.978 32.1596 36.6851 32.0177 36.3425C31.8758 35.9999 31.8387 35.6229 31.911 35.2592C31.9834 34.8955 32.1619 34.5614 32.4242 34.2992C32.6864 34.0369 33.0205 33.8584 33.3842 33.786C33.7479 33.7137 34.1249 33.7508 34.4675 33.8927C34.8101 34.0346 35.103 34.275 35.309 34.5833C35.515 34.8916 35.625 35.2542 35.625 35.625C35.625 36.1223 35.4275 36.5992 35.0758 36.9508C34.7242 37.3025 34.2473 37.5 33.75 37.5Z" fill="white"/>
</svg>
