<svg width="35" height="35" viewBox="0 0 35 35" fill="none" xmlns="http://www.w3.org/2000/svg">
<path d="M27.7083 5.83337H7.29166C6.13133 5.83337 5.01854 6.29431 4.19806 7.11478C3.37759 7.93525 2.91666 9.04805 2.91666 10.2084V24.7917C2.91666 25.952 3.37759 27.0648 4.19806 27.8853C5.01854 28.7058 6.13133 29.1667 7.29166 29.1667H27.7083C28.8686 29.1667 29.9814 28.7058 30.8019 27.8853C31.6224 27.0648 32.0833 25.952 32.0833 24.7917V10.2084C32.0833 9.04805 31.6224 7.93525 30.8019 7.11478C29.9814 6.29431 28.8686 5.83337 27.7083 5.83337ZM27.1104 8.75004L18.5354 17.325C18.3998 17.4617 18.2385 17.5702 18.0608 17.6443C17.8831 17.7183 17.6925 17.7564 17.5 17.7564C17.3075 17.7564 17.1169 17.7183 16.9391 17.6443C16.7614 17.5702 16.6001 17.4617 16.4646 17.325L7.88957 8.75004H27.1104ZM29.1667 24.7917C29.1667 25.1785 29.013 25.5494 28.7395 25.8229C28.466 26.0964 28.0951 26.25 27.7083 26.25H7.29166C6.90488 26.25 6.53395 26.0964 6.26046 25.8229C5.98697 25.5494 5.83332 25.1785 5.83332 24.7917V10.8063L14.4083 19.3813C15.2286 20.2006 16.3406 20.6608 17.5 20.6608C18.6594 20.6608 19.7713 20.2006 20.5917 19.3813L29.1667 10.8063V24.7917Z" fill="black"/>
</svg>
