<svg width="58" height="58" viewBox="0 0 58 58" fill="none" xmlns="http://www.w3.org/2000/svg">
<path d="M29 16.9167C26.6101 16.9167 24.2739 17.6254 22.2868 18.9531C20.2997 20.2809 18.751 22.168 17.8364 24.3759C16.9219 26.5839 16.6826 29.0134 17.1488 31.3574C17.6151 33.7013 18.7659 35.8544 20.4558 37.5443C22.1457 39.2341 24.2987 40.385 26.6426 40.8512C28.9866 41.3174 31.4161 41.0781 33.6241 40.1636C35.832 39.249 37.7192 37.7003 39.0469 35.7132C40.3746 33.7261 41.0833 31.3899 41.0833 29C41.0833 25.7953 39.8103 22.7219 37.5442 20.4558C35.2781 18.1898 32.2047 16.9167 29 16.9167ZM29 36.25C27.5661 36.25 26.1644 35.8248 24.9721 35.0282C23.7798 34.2316 22.8506 33.0993 22.3019 31.7745C21.7531 30.4497 21.6095 28.992 21.8893 27.5856C22.169 26.1793 22.8595 24.8874 23.8735 23.8735C24.8874 22.8596 26.1792 22.1691 27.5856 21.8893C28.9919 21.6096 30.4497 21.7532 31.7744 22.3019C33.0992 22.8506 34.2315 23.7799 35.0281 24.9722C35.8248 26.1644 36.25 27.5661 36.25 29C36.25 30.9229 35.4861 32.7669 34.1265 34.1266C32.7669 35.4862 30.9228 36.25 29 36.25ZM41.0833 14.5C40.6053 14.5 40.1381 14.6418 39.7407 14.9073C39.3433 15.1729 39.0335 15.5503 38.8506 15.9919C38.6677 16.4335 38.6198 16.9194 38.7131 17.3882C38.8063 17.857 39.0365 18.2876 39.3745 18.6255C39.7124 18.9635 40.1431 19.1937 40.6118 19.2869C41.0806 19.3802 41.5665 19.3323 42.0081 19.1494C42.4497 18.9665 42.8272 18.6568 43.0927 18.2593C43.3582 17.8619 43.5 17.3947 43.5 16.9167C43.5 16.2758 43.2454 15.6611 42.7922 15.2079C42.3389 14.7547 41.7243 14.5 41.0833 14.5ZM53.0216 19.9134C52.9816 17.8481 52.5893 15.8049 51.8616 13.8717C51.1869 12.1125 50.1497 10.5149 48.8174 9.18264C47.4851 7.85035 45.8875 6.81315 44.1283 6.13837C42.1951 5.41071 40.1519 5.01841 38.0866 4.97837C35.7425 4.83337 34.9691 4.83337 29 4.83337C23.0308 4.83337 22.2575 4.83337 19.9133 4.97837C17.8481 5.01841 15.8048 5.41071 13.8716 6.13837C12.1125 6.81315 10.5149 7.85035 9.18258 9.18264C7.85029 10.5149 6.81309 12.1125 6.13831 13.8717C5.41065 15.8049 5.01835 17.8481 4.97831 19.9134C4.83331 22.2817 4.83331 23.055 4.83331 29C4.83331 34.945 4.83331 35.7184 4.97831 38.0867C5.01835 40.1519 5.41065 42.1952 6.13831 44.1284C6.81309 45.8876 7.85029 47.4851 9.18258 48.8174C10.5149 50.1497 12.1125 51.1869 13.8716 51.8617C15.8048 52.5894 17.8481 52.9817 19.9133 53.0217C22.33 53.0217 23.0308 53.1667 29 53.1667C34.9691 53.1667 35.7425 53.1667 38.0866 53.0217C40.1519 52.9817 42.1951 52.5894 44.1283 51.8617C45.8875 51.1869 47.4851 50.1497 48.8174 48.8174C50.1497 47.4851 51.1869 45.8876 51.8616 44.1284C52.5893 42.1952 52.9816 40.1519 53.0216 38.0867C53.0216 35.67 53.1666 34.945 53.1666 29C53.1666 23.055 53.1666 22.2817 53.0216 19.9134ZM48.1883 37.8692C48.146 39.4029 47.8605 40.9201 47.3425 42.3642C46.9142 43.5057 46.2373 44.5376 45.3608 45.385C44.5184 46.2619 43.4845 46.9319 42.34 47.3425C40.8924 47.8817 39.3651 48.1757 37.8208 48.2125C35.5491 48.2125 34.8483 48.3334 28.9758 48.3334C23.1033 48.3334 22.4266 48.3334 20.155 48.3334C18.6132 48.2936 17.0876 48.008 15.6358 47.4875C14.4943 47.0593 13.4624 46.3824 12.615 45.5059C11.7381 44.6635 11.0681 43.6296 10.6575 42.485C10.1205 41.0452 9.82651 39.5262 9.78748 37.99C9.78748 35.5734 9.78748 34.9692 9.78748 29.1209C9.78748 23.2725 9.78748 22.5717 9.78748 20.2517C9.82914 18.708 10.123 17.1814 10.6575 15.7325C11.0745 14.5982 11.7439 13.5735 12.615 12.7359C13.4574 11.859 14.4913 11.189 15.6358 10.7784C17.0834 10.2392 18.6107 9.94517 20.155 9.90837C22.4266 9.66671 23.1275 9.66671 29 9.66671C34.8725 9.66671 35.5733 9.66671 37.845 9.66671C39.3968 9.70617 40.9317 10.0001 42.3883 10.5367C43.5226 10.9537 44.5473 11.6231 45.385 12.4942C46.2619 13.3366 46.9318 14.3705 47.3425 15.515C47.9341 16.9857 48.2692 18.547 48.3333 20.1309C48.3333 22.5475 48.4541 23.1517 48.4541 29C48.4541 34.8484 48.3333 35.5492 48.3333 37.8692H48.1883Z" fill="black"/>
</svg>
