<svg width="34" height="34" viewBox="0 0 34 34" fill="none" xmlns="http://www.w3.org/2000/svg">
<path d="M33.0666 18.6667C32.8261 18.4679 32.5345 18.3406 32.2251 18.2993C31.9157 18.258 31.6009 18.3045 31.3166 18.4334C29.5543 19.2399 27.6381 19.6549 25.7 19.6501C22.1147 19.6457 18.6766 18.2241 16.1352 15.6952C13.5938 13.1663 12.1553 9.73523 12.1333 6.15005C12.1409 5.02644 12.2808 3.90763 12.55 2.81672C12.6071 2.52595 12.5857 2.2252 12.4879 1.94547C12.3901 1.66574 12.2195 1.41713 11.9937 1.22527C11.7679 1.0334 11.495 0.905212 11.2031 0.853906C10.9113 0.802601 10.611 0.830035 10.3333 0.933382C7.72052 2.10823 5.44927 3.92798 3.73291 6.22169C2.01656 8.51539 0.911448 11.2078 0.521396 14.0459C0.131345 16.884 0.469157 19.7746 1.5031 22.4463C2.53704 25.118 4.23317 27.483 6.43215 29.3192C8.63113 31.1553 11.2608 32.4023 14.0741 32.9431C16.8873 33.4838 19.7919 33.3005 22.5149 32.4104C25.2379 31.5203 27.6899 29.9527 29.6406 27.8546C31.5914 25.7566 32.9768 23.1972 33.6666 20.4167C33.7507 20.0984 33.7385 19.7623 33.6317 19.4508C33.525 19.1394 33.3283 18.8665 33.0666 18.6667V18.6667ZM17.2333 29.8167C14.4362 29.797 11.7136 28.9132 9.4383 27.2863C7.16295 25.6594 5.44609 23.369 4.52279 20.7286C3.59948 18.0882 3.51487 15.227 4.28055 12.5367C5.04622 9.84642 6.62474 7.45855 8.79998 5.70005V6.15005C8.80439 10.6309 10.5863 14.9269 13.7547 18.0953C16.9232 21.2637 21.2192 23.0456 25.7 23.0501C26.8765 23.0544 28.0499 22.9314 29.2 22.6834C28.0498 24.8592 26.3274 26.6798 24.2186 27.9486C22.1097 29.2175 19.6945 29.8864 17.2333 29.8834V29.8167Z" fill="white"/>
</svg>
