<svg width="70" height="65" viewBox="0 0 70 65" fill="none" xmlns="http://www.w3.org/2000/svg">
<path d="M46.6667 23.0208C44.6477 23.0208 42.674 23.5768 40.9952 24.6184C39.3165 25.6599 38.0081 27.1404 37.2354 28.8725C36.4628 30.6046 36.2606 32.5105 36.6545 34.3493C37.0484 36.1881 38.0206 37.8771 39.4483 39.2028C40.876 40.5285 42.6949 41.4313 44.6751 41.797C46.6554 42.1628 48.7079 41.9751 50.5732 41.2576C52.4386 40.5402 54.0329 39.3252 55.1546 37.7663C56.2763 36.2075 56.875 34.3748 56.875 32.5C56.875 29.986 55.7995 27.5749 53.8851 25.7972C51.9706 24.0195 49.3741 23.0208 46.6667 23.0208ZM46.6667 36.5625C45.8014 36.5625 44.9555 36.3242 44.2361 35.8779C43.5166 35.4315 42.9559 34.797 42.6247 34.0547C42.2936 33.3123 42.2069 32.4955 42.3758 31.7074C42.5446 30.9194 42.9612 30.1955 43.5731 29.6274C44.185 29.0592 44.9645 28.6723 45.8132 28.5156C46.6618 28.3588 47.5415 28.4393 48.3409 28.7467C49.1404 29.0542 49.8236 29.5749 50.3044 30.243C50.7851 30.9111 51.0417 31.6965 51.0417 32.5C51.0417 33.5774 50.5808 34.6108 49.7603 35.3726C48.9398 36.1345 47.827 36.5625 46.6667 36.5625ZM46.6667 13.5417H23.3334C17.9185 13.5417 12.7255 15.5391 8.89659 19.0944C5.06772 22.6498 2.91669 27.4719 2.91669 32.5C2.91669 37.5281 5.06772 42.3502 8.89659 45.9056C12.7255 49.4609 17.9185 51.4583 23.3334 51.4583H46.6667C52.0815 51.4583 57.2746 49.4609 61.1035 45.9056C64.9323 42.3502 67.0834 37.5281 67.0834 32.5C67.0834 27.4719 64.9323 22.6498 61.1035 19.0944C57.2746 15.5391 52.0815 13.5417 46.6667 13.5417ZM46.6667 46.0417H23.3334C19.4656 46.0417 15.7563 44.615 13.0214 42.0754C10.2865 39.5359 8.75002 36.0915 8.75002 32.5C8.75002 28.9085 10.2865 25.4642 13.0214 22.9246C15.7563 20.385 19.4656 18.9583 23.3334 18.9583H46.6667C50.5344 18.9583 54.2438 20.385 56.9787 22.9246C59.7136 25.4642 61.25 28.9085 61.25 32.5C61.25 36.0915 59.7136 39.5359 56.9787 42.0754C54.2438 44.615 50.5344 46.0417 46.6667 46.0417Z" fill="black"/>
</svg>
