<svg width="67" height="60" viewBox="0 0 67 60" fill="none" xmlns="http://www.w3.org/2000/svg">
<path d="M22.3334 21.25C20.4009 21.25 18.5118 21.7632 16.905 22.7246C15.2982 23.6861 14.0458 25.0527 13.3063 26.6515C12.5668 28.2504 12.3733 30.0097 12.7503 31.707C13.1273 33.4044 14.0579 34.9635 15.4243 36.1872C16.7908 37.4109 18.5318 38.2443 20.4272 38.5819C22.3225 38.9195 24.2871 38.7462 26.0725 38.0839C27.8579 37.4217 29.3839 36.3002 30.4575 34.8612C31.5311 33.4223 32.1042 31.7306 32.1042 30C32.1042 27.6794 31.0748 25.4538 29.2424 23.8128C27.41 22.1719 24.9247 21.25 22.3334 21.25V21.25ZM22.3334 33.75C21.5051 33.75 20.6955 33.5301 20.0069 33.118C19.3183 32.706 18.7816 32.1203 18.4646 31.4351C18.1477 30.7498 18.0647 29.9958 18.2263 29.2684C18.3879 28.541 18.7867 27.8728 19.3723 27.3483C19.958 26.8239 20.7041 26.4667 21.5164 26.3221C22.3287 26.1774 23.1707 26.2516 23.9358 26.5355C24.701 26.8193 25.355 27.2999 25.8151 27.9166C26.2753 28.5333 26.5209 29.2583 26.5209 30C26.5209 30.9946 26.0797 31.9484 25.2944 32.6517C24.5091 33.3549 23.4439 33.75 22.3334 33.75ZM44.6667 12.5H22.3334C17.1506 12.5 12.1801 14.3437 8.51531 17.6256C4.85054 20.9075 2.79169 25.3587 2.79169 30C2.79169 34.6413 4.85054 39.0925 8.51531 42.3744C12.1801 45.6563 17.1506 47.5 22.3334 47.5H44.6667C49.8495 47.5 54.82 45.6563 58.4847 42.3744C62.1495 39.0925 64.2084 34.6413 64.2084 30C64.2084 25.3587 62.1495 20.9075 58.4847 17.6256C54.82 14.3437 49.8495 12.5 44.6667 12.5V12.5ZM44.6667 42.5H22.3334C18.6314 42.5 15.081 41.183 12.4633 38.8388C9.84563 36.4946 8.37502 33.3152 8.37502 30C8.37502 26.6848 9.84563 23.5054 12.4633 21.1612C15.081 18.817 18.6314 17.5 22.3334 17.5H44.6667C48.3687 17.5 51.919 18.817 54.5367 21.1612C57.1544 23.5054 58.625 26.6848 58.625 30C58.625 33.3152 57.1544 36.4946 54.5367 38.8388C51.919 41.183 48.3687 42.5 44.6667 42.5Z" fill="white"/>
</svg>
