<svg width="40" height="40" viewBox="0 0 40 40" fill="none" xmlns="http://www.w3.org/2000/svg">
<path d="M9.39998 28.3333L8.21665 29.5167C7.90623 29.8289 7.73199 30.2514 7.73199 30.6917C7.73199 31.132 7.90623 31.5544 8.21665 31.8667C8.52892 32.1771 8.95134 32.3513 9.39165 32.3513C9.83196 32.3513 10.2544 32.1771 10.5666 31.8667L11.75 30.6833C12.023 30.3645 12.1657 29.9544 12.1495 29.5349C12.1333 29.1154 11.9594 28.7175 11.6626 28.4207C11.3658 28.1239 10.9679 27.95 10.5484 27.9338C10.1289 27.9176 9.71882 28.0603 9.39998 28.3333ZM8.33331 20C8.33331 19.558 8.15772 19.134 7.84516 18.8215C7.5326 18.5089 7.10867 18.3333 6.66665 18.3333H4.99998C4.55795 18.3333 4.13403 18.5089 3.82147 18.8215C3.50891 19.134 3.33331 19.558 3.33331 20C3.33331 20.442 3.50891 20.8659 3.82147 21.1785C4.13403 21.4911 4.55795 21.6667 4.99998 21.6667H6.66665C7.10867 21.6667 7.5326 21.4911 7.84516 21.1785C8.15772 20.8659 8.33331 20.442 8.33331 20ZM20 8.33333C20.442 8.33333 20.8659 8.15773 21.1785 7.84517C21.4911 7.53261 21.6666 7.10869 21.6666 6.66666V4.99999C21.6666 4.55797 21.4911 4.13404 21.1785 3.82148C20.8659 3.50892 20.442 3.33333 20 3.33333C19.558 3.33333 19.134 3.50892 18.8215 3.82148C18.5089 4.13404 18.3333 4.55797 18.3333 4.99999V6.66666C18.3333 7.10869 18.5089 7.53261 18.8215 7.84517C19.134 8.15773 19.558 8.33333 20 8.33333ZM9.39998 11.75C9.71041 12.0579 10.1294 12.2315 10.5666 12.2333C10.786 12.2346 11.0034 12.1926 11.2065 12.1096C11.4096 12.0267 11.5942 11.9045 11.75 11.75C12.0604 11.4377 12.2346 11.0153 12.2346 10.575C12.2346 10.1347 12.0604 9.71227 11.75 9.39999L10.5666 8.21666C10.2478 7.94362 9.83768 7.80094 9.41822 7.81714C8.99876 7.83334 8.60087 8.00723 8.30404 8.30406C8.00722 8.60088 7.83333 8.99878 7.81713 9.41824C7.80093 9.8377 7.9436 10.2478 8.21665 10.5667L9.39998 11.75ZM29.4 12.2333C29.8372 12.2315 30.2562 12.0579 30.5666 11.75L31.75 10.5667C31.9244 10.4173 32.0662 10.2334 32.1662 10.0266C32.2662 9.81984 32.3224 9.59462 32.3313 9.36508C32.3402 9.13555 32.3015 8.90667 32.2177 8.69279C32.1339 8.47892 32.0068 8.28467 31.8444 8.12224C31.682 7.95982 31.4877 7.83272 31.2739 7.74893C31.06 7.66514 30.8311 7.62647 30.6016 7.63533C30.372 7.6442 30.1468 7.70041 29.94 7.80045C29.7333 7.90049 29.5494 8.04219 29.4 8.21666L28.3333 9.39999C28.0229 9.71227 27.8487 10.1347 27.8487 10.575C27.8487 11.0153 28.0229 11.4377 28.3333 11.75C28.6271 12.0423 29.0193 12.2146 29.4333 12.2333H29.4ZM35 18.3333H33.3333C32.8913 18.3333 32.4674 18.5089 32.1548 18.8215C31.8422 19.134 31.6666 19.558 31.6666 20C31.6666 20.442 31.8422 20.8659 32.1548 21.1785C32.4674 21.4911 32.8913 21.6667 33.3333 21.6667H35C35.442 21.6667 35.8659 21.4911 36.1785 21.1785C36.4911 20.8659 36.6666 20.442 36.6666 20C36.6666 19.558 36.4911 19.134 36.1785 18.8215C35.8659 18.5089 35.442 18.3333 35 18.3333ZM20 31.6667C19.558 31.6667 19.134 31.8423 18.8215 32.1548C18.5089 32.4674 18.3333 32.8913 18.3333 33.3333V35C18.3333 35.442 18.5089 35.8659 18.8215 36.1785C19.134 36.4911 19.558 36.6667 20 36.6667C20.442 36.6667 20.8659 36.4911 21.1785 36.1785C21.4911 35.8659 21.6666 35.442 21.6666 35V33.3333C21.6666 32.8913 21.4911 32.4674 21.1785 32.1548C20.8659 31.8423 20.442 31.6667 20 31.6667ZM30.6 28.3333C30.2833 28.1572 29.9179 28.0891 29.5591 28.1392C29.2002 28.1894 28.8675 28.3551 28.6113 28.6113C28.3551 28.8675 28.1894 29.2003 28.1392 29.5591C28.089 29.9179 28.1572 30.2834 28.3333 30.6L29.5166 31.7833C29.8289 32.0937 30.2513 32.268 30.6916 32.268C31.132 32.268 31.5544 32.0937 31.8666 31.7833C32.1771 31.4711 32.3513 31.0486 32.3513 30.6083C32.3513 30.168 32.1771 29.7456 31.8666 29.4333L30.6 28.3333ZM20 10.8333C18.187 10.8333 16.4147 11.3709 14.9073 12.3782C13.3998 13.3854 12.2249 14.8171 11.5311 16.4921C10.8373 18.1671 10.6558 20.0102 11.0094 21.7883C11.3631 23.5665 12.2362 25.1998 13.5182 26.4818C14.8001 27.7638 16.4335 28.6368 18.2117 28.9905C19.9898 29.3442 21.8329 29.1627 23.5079 28.4689C25.1829 27.7751 26.6145 26.6002 27.6218 25.0927C28.629 23.5853 29.1666 21.813 29.1666 20C29.1622 17.5702 28.1951 15.2412 26.4769 13.523C24.7588 11.8049 22.4298 10.8377 20 10.8333ZM20 25.8333C18.8463 25.8333 17.7184 25.4912 16.7592 24.8502C15.7999 24.2093 15.0522 23.2982 14.6107 22.2323C14.1692 21.1664 14.0537 19.9935 14.2787 18.862C14.5038 17.7304 15.0594 16.691 15.8752 15.8752C16.691 15.0594 17.7304 14.5038 18.862 14.2787C19.9935 14.0537 21.1664 14.1692 22.2323 14.6107C23.2982 15.0522 24.2092 15.7999 24.8502 16.7592C25.4912 17.7185 25.8333 18.8463 25.8333 20C25.8333 21.5471 25.2187 23.0308 24.1248 24.1248C23.0308 25.2187 21.5471 25.8333 20 25.8333Z" fill="black"/>
</svg>
