<svg width="35" height="35" viewBox="0 0 35 35" fill="none" xmlns="http://www.w3.org/2000/svg">
<path d="M28.35 18.9583C28.0292 18.9583 27.6937 18.8562 27.3729 18.7833C26.7232 18.6401 26.0847 18.45 25.4625 18.2145C24.786 17.9684 24.0423 17.9812 23.3746 18.2504C22.7069 18.5196 22.1624 19.0263 21.8458 19.6729L21.525 20.3291C20.1046 19.539 18.7993 18.5576 17.6458 17.4125C16.5007 16.2589 15.5193 14.9537 14.7292 13.5333L15.3417 13.125C15.9882 12.8084 16.4949 12.2638 16.7641 11.5962C17.0333 10.9285 17.0461 10.1848 16.8 9.50828C16.5684 8.88473 16.3784 8.24653 16.2312 7.59787C16.1583 7.27703 16.1 6.94162 16.0562 6.6062C15.8792 5.57898 15.3411 4.64874 14.539 3.98301C13.7369 3.31727 12.7235 2.9598 11.6812 2.97495H7.30624C6.67775 2.96905 6.05536 3.09864 5.48145 3.35489C4.90753 3.61114 4.39557 3.98805 3.98041 4.45994C3.56526 4.93184 3.25665 5.48765 3.0756 6.08953C2.89455 6.69142 2.84532 7.32524 2.93124 7.94787C3.70815 14.0574 6.49837 19.7339 10.8612 24.0809C15.2239 28.4278 20.9106 31.1974 27.0229 31.952H27.5771C28.6525 31.9536 29.6908 31.5591 30.4937 30.8437C30.9551 30.4311 31.3237 29.9252 31.5751 29.3596C31.8264 28.794 31.9549 28.1814 31.9521 27.5625V23.1875C31.9342 22.1745 31.5653 21.1991 30.9084 20.4278C30.2515 19.6565 29.3472 19.1371 28.35 18.9583V18.9583ZM29.0792 27.7083C29.0789 27.9153 29.0345 28.12 28.9491 28.3086C28.8636 28.4972 28.7389 28.6654 28.5833 28.802C28.4209 28.9435 28.2304 29.0491 28.0243 29.1119C27.8183 29.1747 27.6013 29.1934 27.3875 29.1666C21.9259 28.4663 16.8528 25.9677 12.9685 22.065C9.08424 18.1622 6.60976 13.0773 5.93541 7.61245C5.9122 7.39883 5.93254 7.18272 5.99521 6.97719C6.05787 6.77165 6.16155 6.58095 6.29999 6.41662C6.43666 6.26106 6.60488 6.13639 6.79346 6.05089C6.98205 5.9654 7.18668 5.92105 7.39374 5.92078H11.7687C12.1079 5.91324 12.439 6.02415 12.7052 6.23443C12.9714 6.44471 13.1559 6.7412 13.2271 7.07287C13.2854 7.47148 13.3583 7.86523 13.4458 8.25412C13.6143 9.02287 13.8385 9.77834 14.1167 10.5145L12.075 11.4625C11.9004 11.5425 11.7434 11.6563 11.6129 11.7973C11.4825 11.9382 11.3811 12.1036 11.3147 12.2838C11.2483 12.464 11.2182 12.6556 11.226 12.8475C11.2339 13.0394 11.2795 13.2278 11.3604 13.402C13.4592 17.8977 17.0731 21.5115 21.5687 23.6104C21.9238 23.7562 22.322 23.7562 22.6771 23.6104C22.859 23.5453 23.0261 23.4448 23.1688 23.3146C23.3115 23.1844 23.4269 23.0272 23.5083 22.852L24.4125 20.8104C25.1664 21.08 25.9358 21.304 26.7167 21.4812C27.1056 21.5687 27.4993 21.6416 27.8979 21.7C28.2296 21.7711 28.5261 21.9556 28.7364 22.2218C28.9466 22.488 29.0575 22.8192 29.05 23.1583L29.0792 27.7083Z" fill="black"/>
</svg>
