<svg width="58" height="58" viewBox="0 0 58 58" fill="none" xmlns="http://www.w3.org/2000/svg">
<path d="M53.1667 15.8292C53.1395 14.7866 53.0589 13.7461 52.925 12.7117C52.7446 11.8058 52.4438 10.928 52.0308 10.1017C51.5989 9.20538 51.0188 8.38836 50.315 7.68504C49.6047 6.98953 48.7891 6.41047 47.8983 5.96921C47.071 5.56428 46.1932 5.27169 45.2883 5.09921C44.2638 4.94575 43.2307 4.85696 42.195 4.83337H15.8292C14.7866 4.86053 13.746 4.94119 12.7117 5.07504C11.8057 5.25549 10.928 5.55621 10.1017 5.96921C9.20535 6.40115 8.38832 6.98124 7.68501 7.68504C6.9895 8.39532 6.41044 9.21091 5.96918 10.1017C5.56425 10.9291 5.27166 11.8068 5.09918 12.7117C4.94572 13.7362 4.85693 14.7694 4.83334 15.805C4.83334 16.2642 4.83334 16.9167 4.83334 17.11V40.89C4.83334 41.1559 4.83334 41.7359 4.83334 42.1709C4.8605 43.2135 4.94116 44.254 5.07501 45.2884C5.25546 46.1943 5.55618 47.0721 5.96918 47.8984C6.40112 48.7947 6.98121 49.6117 7.68501 50.315C8.39529 51.0105 9.21088 51.5896 10.1017 52.0309C10.9291 52.4358 11.8068 52.7284 12.7117 52.9009C13.7362 53.0543 14.7693 53.1431 15.805 53.1667H42.1708C43.2135 53.1396 44.254 53.0589 45.2883 52.925C46.1943 52.7446 47.0721 52.4439 47.8983 52.0309C48.7947 51.5989 49.6117 51.0188 50.315 50.315C51.0105 49.6048 51.5896 48.7892 52.0308 47.8984C52.4358 47.071 52.7284 46.1932 52.9008 45.2884C53.0543 44.2639 53.1431 43.2307 53.1667 42.195C53.1667 41.7359 53.1667 41.1559 53.1667 40.89V17.11C53.1667 16.9167 53.1667 16.2642 53.1667 15.8292ZM29.5558 45.9167C26.6536 45.9024 23.8021 45.1542 21.2667 43.7417L12.0833 46.1584L14.5 37.1684C12.9415 34.5498 12.1075 31.5639 12.0833 28.5167C12.093 25.0921 13.1158 21.7469 15.0229 18.9025C16.93 16.0581 19.6362 13.8416 22.8006 12.5322C25.965 11.2228 29.4461 10.8791 32.8055 11.5443C36.1649 12.2095 39.2523 13.854 41.6789 16.2705C44.1055 18.687 45.7627 21.7676 46.4419 25.1242C47.1211 28.4807 46.7919 31.9633 45.4957 35.1331C44.1995 38.3029 41.9942 41.0183 39.1577 42.9372C36.3213 44.8562 32.9804 45.8928 29.5558 45.9167ZM29.5558 14.1859C26.9937 14.2152 24.4851 14.9229 22.2854 16.237C20.0858 17.5511 18.2736 19.4246 17.0334 21.6667C15.7932 23.9089 15.1693 26.4396 15.2252 29.0013C15.2811 31.563 16.0148 34.0641 17.3517 36.25L17.69 36.8059L16.24 42.0984L21.75 40.6L22.2817 40.9142C24.4798 42.209 26.9806 42.9009 29.5317 42.92C33.3773 42.92 37.0654 41.3924 39.7847 38.6731C42.504 35.9538 44.0317 32.2657 44.0317 28.42C44.0317 24.5744 42.504 20.8863 39.7847 18.167C37.0654 15.4477 33.3773 13.92 29.5317 13.92L29.5558 14.1859ZM38.0142 34.7759C37.6977 35.3038 37.2738 35.7595 36.7701 36.1133C36.2664 36.4672 35.694 36.7113 35.09 36.83C34.1875 36.995 33.2583 36.9369 32.3833 36.6609C31.5601 36.4035 30.7531 36.0968 29.9667 35.7425C26.9791 34.2434 24.4312 31.9953 22.5717 29.2175C21.5612 27.9306 20.9481 26.3769 20.8075 24.7467C20.7931 24.0695 20.9212 23.3969 21.1835 22.7724C21.4458 22.1479 21.8364 21.5855 22.33 21.1217C22.4754 20.9569 22.6538 20.8244 22.8536 20.7328C23.0534 20.6412 23.2702 20.5926 23.49 20.59H24.1667C24.4325 20.59 24.795 20.59 25.1333 21.3392C25.4717 22.0884 26.3658 24.3359 26.4867 24.5534C26.5461 24.6693 26.577 24.7977 26.577 24.928C26.577 25.0582 26.5461 25.1866 26.4867 25.3025C26.3798 25.5652 26.2331 25.8097 26.0517 26.0275C25.8342 26.2934 25.5925 26.6075 25.3992 26.8009C25.2058 26.9942 24.9642 27.2359 25.2058 27.6709C25.8634 28.7806 26.6773 29.7898 27.6225 30.6675C28.6518 31.5771 29.8287 32.3044 31.1025 32.8184C31.5375 33.0359 31.8033 33.0117 32.045 32.8184C32.2867 32.625 33.1325 31.5617 33.4225 31.1267C33.7125 30.6917 34.0025 30.7642 34.3892 30.9092C34.7758 31.0542 36.9267 32.0934 37.3617 32.3109C37.7967 32.5284 38.0625 32.625 38.1833 32.8184C38.2882 33.4509 38.2299 34.0996 38.0142 34.7034V34.7759Z" fill="black"/>
</svg>
